<mxfile host="app.diagrams.net" modified="2024-02-14T13:47:07.740Z" agent="Mozilla/5.0 (Windows NT 10.0; Win64; x64) AppleWebKit/537.36 (KHTML, like Gecko) Chrome/121.0.0.0 Safari/537.36" etag="Vno7SBBvJXYZoEQSkZ6U" version="23.1.4" type="onedrive">
  <diagram name="Page-1" id="JBnDdgEJVDHmiCHdjfc6">
    <mxGraphModel grid="1" page="1" gridSize="10" guides="1" tooltips="1" connect="1" arrows="1" fold="1" pageScale="1" pageWidth="827" pageHeight="1169" math="0" shadow="0">
      <root>
        <mxCell id="0" />
        <mxCell id="1" parent="0" />
        <mxCell id="TqdtgMa0sI61i3dtGQll-4" style="edgeStyle=orthogonalEdgeStyle;rounded=0;orthogonalLoop=1;jettySize=auto;html=1;exitX=0.5;exitY=0.5;exitDx=0;exitDy=0;exitPerimeter=0;" edge="1" parent="1" source="TqdtgMa0sI61i3dtGQll-6" target="TqdtgMa0sI61i3dtGQll-7">
          <mxGeometry relative="1" as="geometry" />
        </mxCell>
        <mxCell id="TqdtgMa0sI61i3dtGQll-5" style="edgeStyle=orthogonalEdgeStyle;rounded=0;orthogonalLoop=1;jettySize=auto;html=1;exitX=0.5;exitY=0.5;exitDx=0;exitDy=0;exitPerimeter=0;" edge="1" parent="1" source="TqdtgMa0sI61i3dtGQll-6" target="TqdtgMa0sI61i3dtGQll-11">
          <mxGeometry relative="1" as="geometry" />
        </mxCell>
        <mxCell id="TqdtgMa0sI61i3dtGQll-31" style="edgeStyle=orthogonalEdgeStyle;rounded=0;orthogonalLoop=1;jettySize=auto;html=1;exitX=0.5;exitY=0.5;exitDx=0;exitDy=0;exitPerimeter=0;entryX=0;entryY=0.5;entryDx=0;entryDy=0;" edge="1" parent="1" source="TqdtgMa0sI61i3dtGQll-6" target="TqdtgMa0sI61i3dtGQll-29">
          <mxGeometry relative="1" as="geometry" />
        </mxCell>
        <mxCell id="TqdtgMa0sI61i3dtGQll-6" value="Admin" style="shape=umlActor;verticalLabelPosition=bottom;verticalAlign=top;html=1;outlineConnect=0;" vertex="1" parent="1">
          <mxGeometry x="80" y="340" width="30" height="60" as="geometry" />
        </mxCell>
        <mxCell id="TqdtgMa0sI61i3dtGQll-7" value="Add User" style="ellipse;whiteSpace=wrap;html=1;" vertex="1" parent="1">
          <mxGeometry x="190" y="345" width="140" height="50" as="geometry" />
        </mxCell>
        <mxCell id="TqdtgMa0sI61i3dtGQll-8" style="edgeStyle=orthogonalEdgeStyle;rounded=0;orthogonalLoop=1;jettySize=auto;html=1;exitX=0;exitY=0.5;exitDx=0;exitDy=0;entryX=1;entryY=0.5;entryDx=0;entryDy=0;dashed=1;" edge="1" parent="1" source="TqdtgMa0sI61i3dtGQll-9" target="TqdtgMa0sI61i3dtGQll-7">
          <mxGeometry relative="1" as="geometry" />
        </mxCell>
        <mxCell id="TqdtgMa0sI61i3dtGQll-9" value="Add Client to company" style="ellipse;whiteSpace=wrap;html=1;" vertex="1" parent="1">
          <mxGeometry x="410" y="345" width="140" height="50" as="geometry" />
        </mxCell>
        <mxCell id="TqdtgMa0sI61i3dtGQll-10" value="&amp;lt;&amp;lt;extend&amp;gt;&amp;gt;" style="text;html=1;strokeColor=none;fillColor=none;align=center;verticalAlign=middle;whiteSpace=wrap;rounded=0;" vertex="1" parent="1">
          <mxGeometry x="310" y="350" width="120" height="20" as="geometry" />
        </mxCell>
        <mxCell id="TqdtgMa0sI61i3dtGQll-11" value="Upload to SQL Data" style="ellipse;whiteSpace=wrap;html=1;" vertex="1" parent="1">
          <mxGeometry x="190" y="290" width="130" height="50" as="geometry" />
        </mxCell>
        <mxCell id="TqdtgMa0sI61i3dtGQll-12" style="edgeStyle=orthogonalEdgeStyle;rounded=0;orthogonalLoop=1;jettySize=auto;html=1;exitX=0;exitY=0.5;exitDx=0;exitDy=0;entryX=1;entryY=0.5;entryDx=0;entryDy=0;dashed=1;" edge="1" parent="1" source="TqdtgMa0sI61i3dtGQll-13" target="TqdtgMa0sI61i3dtGQll-11">
          <mxGeometry relative="1" as="geometry" />
        </mxCell>
        <mxCell id="TqdtgMa0sI61i3dtGQll-13" value="Manage Data" style="ellipse;whiteSpace=wrap;html=1;" vertex="1" parent="1">
          <mxGeometry x="414" y="290" width="140" height="50" as="geometry" />
        </mxCell>
        <mxCell id="TqdtgMa0sI61i3dtGQll-14" value="&amp;lt;&amp;lt;extend&amp;gt;&amp;gt;" style="text;html=1;strokeColor=none;fillColor=none;align=center;verticalAlign=middle;whiteSpace=wrap;rounded=0;" vertex="1" parent="1">
          <mxGeometry x="310" y="290" width="120" height="20" as="geometry" />
        </mxCell>
        <mxCell id="TqdtgMa0sI61i3dtGQll-15" style="edgeStyle=orthogonalEdgeStyle;rounded=0;orthogonalLoop=1;jettySize=auto;html=1;exitX=0.5;exitY=0.5;exitDx=0;exitDy=0;exitPerimeter=0;entryX=0;entryY=0.5;entryDx=0;entryDy=0;" edge="1" parent="1" source="TqdtgMa0sI61i3dtGQll-18" target="TqdtgMa0sI61i3dtGQll-19">
          <mxGeometry relative="1" as="geometry" />
        </mxCell>
        <mxCell id="TqdtgMa0sI61i3dtGQll-16" style="edgeStyle=orthogonalEdgeStyle;rounded=0;orthogonalLoop=1;jettySize=auto;html=1;exitX=0.5;exitY=0.5;exitDx=0;exitDy=0;exitPerimeter=0;entryX=0;entryY=0.5;entryDx=0;entryDy=0;" edge="1" parent="1" source="TqdtgMa0sI61i3dtGQll-18" target="TqdtgMa0sI61i3dtGQll-28">
          <mxGeometry relative="1" as="geometry" />
        </mxCell>
        <mxCell id="TqdtgMa0sI61i3dtGQll-30" style="edgeStyle=orthogonalEdgeStyle;rounded=0;orthogonalLoop=1;jettySize=auto;html=1;exitX=0.5;exitY=0.5;exitDx=0;exitDy=0;exitPerimeter=0;entryX=0;entryY=0.5;entryDx=0;entryDy=0;" edge="1" parent="1" source="TqdtgMa0sI61i3dtGQll-18" target="TqdtgMa0sI61i3dtGQll-29">
          <mxGeometry relative="1" as="geometry" />
        </mxCell>
        <mxCell id="TqdtgMa0sI61i3dtGQll-18" value="User" style="shape=umlActor;verticalLabelPosition=bottom;verticalAlign=top;html=1;outlineConnect=0;" vertex="1" parent="1">
          <mxGeometry x="80" y="130" width="30" height="60" as="geometry" />
        </mxCell>
        <mxCell id="TqdtgMa0sI61i3dtGQll-19" value="Enter Continent" style="ellipse;whiteSpace=wrap;html=1;" vertex="1" parent="1">
          <mxGeometry x="190" y="100" width="120" height="40" as="geometry" />
        </mxCell>
        <mxCell id="TqdtgMa0sI61i3dtGQll-20" style="edgeStyle=orthogonalEdgeStyle;rounded=0;orthogonalLoop=1;jettySize=auto;html=1;exitX=1;exitY=0.5;exitDx=0;exitDy=0;entryX=0;entryY=0.5;entryDx=0;entryDy=0;dashed=1;" edge="1" parent="1" source="TqdtgMa0sI61i3dtGQll-19" target="TqdtgMa0sI61i3dtGQll-24">
          <mxGeometry relative="1" as="geometry">
            <mxPoint x="310" y="125" as="sourcePoint" />
          </mxGeometry>
        </mxCell>
        <mxCell id="TqdtgMa0sI61i3dtGQll-21" style="edgeStyle=orthogonalEdgeStyle;rounded=0;orthogonalLoop=1;jettySize=auto;html=1;exitX=1;exitY=0.5;exitDx=0;exitDy=0;dashed=1;" edge="1" parent="1" source="TqdtgMa0sI61i3dtGQll-19" target="TqdtgMa0sI61i3dtGQll-23">
          <mxGeometry relative="1" as="geometry">
            <mxPoint x="310" y="125" as="sourcePoint" />
          </mxGeometry>
        </mxCell>
        <mxCell id="TqdtgMa0sI61i3dtGQll-22" style="edgeStyle=orthogonalEdgeStyle;rounded=0;orthogonalLoop=1;jettySize=auto;html=1;exitX=0;exitY=0.5;exitDx=0;exitDy=0;entryX=1;entryY=0.5;entryDx=0;entryDy=0;dashed=1;" edge="1" parent="1" source="TqdtgMa0sI61i3dtGQll-23" target="TqdtgMa0sI61i3dtGQll-28">
          <mxGeometry relative="1" as="geometry">
            <mxPoint x="310" y="205" as="targetPoint" />
          </mxGeometry>
        </mxCell>
        <mxCell id="TqdtgMa0sI61i3dtGQll-23" value="Finds Continent in SQL Database and Finds the total population, population in cities, and population out with cities" style="ellipse;whiteSpace=wrap;html=1;" vertex="1" parent="1">
          <mxGeometry x="410" y="147.5" width="230" height="95" as="geometry" />
        </mxCell>
        <mxCell id="TqdtgMa0sI61i3dtGQll-24" value="Download SQL Database" style="ellipse;whiteSpace=wrap;html=1;" vertex="1" parent="1">
          <mxGeometry x="400" y="60" width="130" height="50" as="geometry" />
        </mxCell>
        <mxCell id="TqdtgMa0sI61i3dtGQll-25" value="&amp;lt;&amp;lt;includes&amp;gt;&amp;gt;" style="text;html=1;strokeColor=none;fillColor=none;align=center;verticalAlign=middle;whiteSpace=wrap;rounded=0;" vertex="1" parent="1">
          <mxGeometry x="290" y="60" width="120" height="20" as="geometry" />
        </mxCell>
        <mxCell id="TqdtgMa0sI61i3dtGQll-26" value="&amp;lt;&amp;lt;includes&amp;gt;&amp;gt;" style="text;html=1;strokeColor=none;fillColor=none;align=center;verticalAlign=middle;whiteSpace=wrap;rounded=0;" vertex="1" parent="1">
          <mxGeometry x="340" y="120" width="120" height="20" as="geometry" />
        </mxCell>
        <mxCell id="TqdtgMa0sI61i3dtGQll-27" value="&amp;lt;&amp;lt;includes&amp;gt;&amp;gt;" style="text;html=1;strokeColor=none;fillColor=none;align=center;verticalAlign=middle;whiteSpace=wrap;rounded=0;" vertex="1" parent="1">
          <mxGeometry x="300" y="170" width="120" height="20" as="geometry" />
        </mxCell>
        <mxCell id="TqdtgMa0sI61i3dtGQll-28" value="Look at SQL Database" style="ellipse;whiteSpace=wrap;html=1;" vertex="1" parent="1">
          <mxGeometry x="190" y="170" width="130" height="50" as="geometry" />
        </mxCell>
        <mxCell id="TqdtgMa0sI61i3dtGQll-29" value="Login&amp;nbsp;" style="ellipse;whiteSpace=wrap;html=1;" vertex="1" parent="1">
          <mxGeometry x="190" y="230" width="130" height="50" as="geometry" />
        </mxCell>
      </root>
    </mxGraphModel>
  </diagram>
</mxfile>
